<?xml version="1.0" standalone="no"?>
<!DOCTYPE svg PUBLIC "-//W3C//DTD SVG 20010904//EN"
 "http://www.w3.org/TR/2001/REC-SVG-20010904/DTD/svg10.dtd">
<svg version="1.0" xmlns="http://www.w3.org/2000/svg"
 width="512.000000pt" height="512.000000pt" viewBox="0 0 512.000000 512.000000"
 preserveAspectRatio="xMidYMid meet">
<metadata>
Created by potrace 1.16, written by Peter Selinger 2001-2019
</metadata>
<g transform="translate(0.000000,512.000000) scale(0.100000,-0.100000)"
fill="#BE123C" stroke="none">
<path d="M2235 5104 c-470 -63 -887 -237 -1255 -522 -114 -89 -315 -286 -406
-399 -295 -366 -470 -758 -551 -1233 -26 -153 -26 -617 0 -780 116 -725 530
-1364 1142 -1763 332 -216 720 -354 1117 -397 125 -13 431 -13 556 0 467 51
888 219 1282 514 115 86 372 339 462 456 267 347 445 757 513 1180 23 141 31
525 15 673 -44 407 -186 805 -406 1133 -110 166 -173 243 -314 388 -405 416
-927 676 -1508 750 -153 20 -504 20 -647 0z m500 -1078 c19 -8 44 -30 55 -48
20 -33 20 -48 20 -1010 0 -538 3 -978 8 -978 4 0 144 137 312 305 339 340 343
343 423 307 57 -26 242 -217 252 -260 16 -75 26 -64 -573 -664 -312 -312 -581
-575 -598 -583 -41 -19 -107 -19 -148 0 -17 8 -286 271 -598 583 -599 600
-589 589 -573 664 10 43 195 234 251 259 80 36 78 37 419 -302 171 -170 314
-309 318 -309 4 0 7 440 7 978 0 962 0 978 20 1010 32 52 66 61 228 62 102 0
152 -4 177 -14z"/>
</g>
</svg>
